<svg width="320" height="540" viewBox="0 0 320 540" fill="none" xmlns="http://www.w3.org/2000/svg">
<path d="M627.843 72.0365C606.081 21.6193 548.944 -10.1906 494.729 2.98151C468.354 9.41538 445.041 24.8267 428.792 46.5705C412.858 68.4989 406.02 95.7379 409.711 122.59C413.119 148.465 425.537 173.507 445.663 190.419C464.184 205.998 490.519 213.977 514.416 208.587C539.191 202.94 555.228 181.774 556.349 156.762C557.576 129.328 543.931 102.726 525.016 83.6794C505.072 63.7094 477.51 51.0066 449.025 56.23C420.539 61.4534 401.958 83.6946 397.702 111.75C392.674 144.846 405.728 176.323 411.665 208.33C416.806 236.382 414.258 265.303 404.29 292.025C385.284 343.699 341.019 387.076 286.895 400.082C257.273 407.198 222.715 405.684 197.41 387.107C174.376 370.195 164.638 339.793 170.242 312.192C175.906 284.319 197.273 263.819 224.972 258.02C252.427 252.282 282.23 261.472 298.949 284.592C314.986 306.742 317.849 337.007 309.065 362.564C299.373 390.574 275.143 411.074 247.733 420.854C185.643 442.823 121.948 409.393 82.2408 361.928C40.6559 312.223 20.5903 249.163 -16.1941 196.369C-47.9204 150.812 -99.4852 106.632 -158.546 110.311C-217.032 113.9 -257.92 164.287 -275.926 216.051C-298.869 281.987 -295.189 353.828 -314.967 420.582C-332.715 480.507 -372.801 540.433 -437.632 554.619C-467.103 561.353 -498.04 554.42 -521.817 535.754C-543.866 518.434 -559.464 491.348 -556.511 462.672C-553.482 432.997 -531.509 407.652 -504.81 395.767C-473.008 381.626 -434.936 386.259 -404.543 401.823C-355.613 426.911 -324.553 481.416 -324.553 536.027C-324.674 600.494 -370.893 652.365 -421.988 685.992C-450.353 704.645 -481.049 719.301 -511.685 733.82C-513.669 734.759 -511.943 737.696 -509.959 736.848C-450.11 708.369 -387.036 677.801 -348.798 621.131C-332.715 597.33 -322.281 569.805 -321.236 540.887C-320.513 514.455 -326.483 488.269 -338.591 464.761C-364.427 413.966 -419.308 377.493 -477.657 384.926C-505.643 388.484 -531.509 403.504 -547.076 427.319C-561.772 449.411 -564.094 477.5 -553.225 501.704C-542.276 526.08 -520.378 545.051 -495.557 554.407C-469.207 564.354 -440.01 561.569 -414.371 550.743C-355.31 525.792 -322.902 466.972 -307.849 407.501C-299.338 373.935 -295.522 339.521 -291.055 305.243C-286.36 269.133 -280.621 232.236 -265.431 198.806C-253.059 171.554 -234.038 146.345 -208.536 130.221C-182.386 113.688 -150.376 109.23 -120.702 117.987C-57.8396 136.156 -18.4656 193.538 10.5803 248.194C40.3076 304.123 67.2788 365.017 121.13 402.292C146.012 419.522 175.648 431.059 206.208 431.241C233.891 431.422 261.953 422.399 283.442 404.73C304.144 387.878 316.541 362.895 317.44 336.22C318.258 311.541 309.217 285.894 289.939 269.799C270.66 253.705 243.341 249.36 219.459 255.825C194.941 262.472 175.542 280.625 168.455 305.137C161.579 328.892 165.956 356.145 181.1 375.873C198.833 398.992 229.015 407.834 257.152 407.319C311.458 406.305 360.842 373.359 389.752 328.589C404.336 306.226 413.589 280.814 416.799 254.311C418.329 240.893 418.085 227.331 416.072 213.977C413.3 195.582 407.652 177.792 403.79 159.623C397.233 128.722 396.718 88.9786 426.036 69.0539C454.355 49.7954 491.155 58.7736 515.688 79.6521C538.404 99.062 555.652 129.237 552.714 159.972C551.321 174.476 544.431 188.269 532.437 196.868C521.306 204.847 507.313 207.467 493.82 206.543C431.655 202.001 398.777 129.6 417.571 74.9132C427.505 46.086 451.266 23.0424 479.282 11.5055C507.417 -0.0536587 539.124 0.792992 566.601 13.8371C592.655 26.0797 613.37 47.3713 624.89 73.7474C625.768 75.7611 628.706 74.0199 627.843 72.0365Z" fill="#FF4C0D"/>
</svg>
