<svg width="494" height="738" viewBox="0 0 494 738" fill="none" xmlns="http://www.w3.org/2000/svg">
<path d="M48.9803 0.5609C17.1745 19.6316 -0.739854 56.8499 0.301945 93.4666C1.38573 131.398 24.32 163.808 58.9027 178.903C92.289 193.455 134.007 191.504 162.693 167.605C189.525 145.248 204.841 102.278 178.444 73.4882C156.149 49.18 113.168 45.1415 88.2641 67.5149C63.3598 89.8883 61.0571 129.616 76.627 157.956C96.2825 193.707 140.332 202.156 177.701 201.327C222.993 200.402 271.276 186.13 314.904 204.585C349.302 219.135 374.697 251.38 383.953 287.27C388.707 305.217 388.914 324.063 384.555 342.104C379.628 361.743 366.567 381.563 347.636 390.095C326.578 399.589 305.251 388.183 296.546 367.73C286.995 345.233 294.113 320.317 301.442 298.291C315.449 256.234 336.605 211.914 375.24 187.295C409.473 165.539 457.846 160.58 489.712 189.423C525.836 222.126 526.215 275.668 514.52 319.32C508.171 343.001 498.809 365.818 489.677 388.531C480.397 411.625 470.949 434.674 462.754 458.209C447.274 502.817 436.466 549.675 441.073 597.16C445.389 641.704 463.348 685.084 498.63 713.857C531.447 740.694 573.921 753.071 615.643 756.081C667.78 759.896 719.908 750.649 771.351 743.482L936.359 720.507L1015.48 709.485C1017.18 709.249 1017.02 706.57 1015.32 706.791L852.295 729.486C799.258 736.877 746.241 745.478 692.986 751.107C645.575 756.107 596.485 756.612 551.103 740.032C531.005 732.69 511.948 722.159 495.868 707.92C478.493 692.301 465.019 672.823 456.531 651.05C418.938 556.566 465.053 458.719 499.485 371.197C515.876 329.495 531.79 283.853 520.641 238.666C515.838 219.128 506.094 200.306 490.909 186.839C477.027 174.748 459.506 167.65 441.135 166.673C401.356 164.168 364.692 185.319 340.365 215.65C326.784 232.633 316.519 252.047 308.269 272.069C299.851 292.527 291.327 314.756 289.532 336.952C288.01 355.853 293.286 376.712 309.052 388.652C323.145 399.312 341.256 398.048 355.638 388.744C386.963 368.482 394.956 327.037 387.936 292.628C380.963 258.507 359.625 227.075 329.687 209.085C291.566 186.215 246.472 192.934 204.497 196.885C164.744 200.638 114.572 201.232 86.3877 167.517C63.8727 140.586 62.7778 95.1378 89.1409 70.357C115.764 45.2982 166.27 53.0228 183.709 85.4501C204.621 124.307 169.598 168.869 133.113 180.792C96.6288 192.716 53.1379 181.368 26.8929 153.286C-0.404452 124.043 -3.35369 79.4642 13.4212 44.2155C21.4246 27.0662 34.3159 12.6708 50.4749 2.83871C51.9769 1.93607 50.441 -0.277081 48.9803 0.5609Z" fill="#FF4C0D"/>
</svg>
