<svg width="54" height="54" viewBox="0 0 54 54" fill="none" xmlns="http://www.w3.org/2000/svg">
<circle cx="27" cy="27" r="27" fill="#F1F1F1"/>
<path fill-rule="evenodd" clip-rule="evenodd" d="M28.8286 34C28.5366 34 28.2466 33.873 28.0486 33.627L23.2206 27.627C22.9226 27.256 22.9266 26.726 23.2316 26.36L28.2316 20.36C28.5846 19.936 29.2156 19.879 29.6406 20.232C30.0646 20.585 30.1216 21.216 29.7676 21.64L25.2926 27.011L29.6076 32.373C29.9536 32.803 29.8856 33.433 29.4546 33.779C29.2706 33.928 29.0486 34 28.8286 34Z" fill="#151515"/>
<mask id="mask0_2_906" style="mask-type:luminance" maskUnits="userSpaceOnUse" x="23" y="20" width="7" height="14">
<path fill-rule="evenodd" clip-rule="evenodd" d="M28.8286 34C28.5366 34 28.2466 33.873 28.0486 33.627L23.2206 27.627C22.9226 27.256 22.9266 26.726 23.2316 26.36L28.2316 20.36C28.5846 19.936 29.2156 19.879 29.6406 20.232C30.0646 20.585 30.1216 21.216 29.7676 21.64L25.2926 27.011L29.6076 32.373C29.9536 32.803 29.8856 33.433 29.4546 33.779C29.2706 33.928 29.0486 34 28.8286 34Z" fill="white"/>
</mask>
<g mask="url(#mask0_2_906)">
<rect x="15" y="15" width="24" height="24" fill="#151515"/>
</g>
</svg>
