<svg width="54" height="54" viewBox="0 0 54 54" fill="none" xmlns="http://www.w3.org/2000/svg">
<circle cx="27" cy="27" r="27" fill="#FF4C0D"/>
<path fill-rule="evenodd" clip-rule="evenodd" d="M25.1714 34C25.4634 34 25.7534 33.873 25.9514 33.627L30.7794 27.627C31.0774 27.256 31.0734 26.726 30.7684 26.36L25.7684 20.36C25.4154 19.936 24.7844 19.879 24.3594 20.232C23.9354 20.585 23.8784 21.216 24.2324 21.64L28.7074 27.011L24.3924 32.373C24.0464 32.803 24.1144 33.433 24.5454 33.779C24.7294 33.928 24.9514 34 25.1714 34Z" fill="white"/>
<mask id="mask0_2_909" style="mask-type:luminance" maskUnits="userSpaceOnUse" x="24" y="20" width="7" height="14">
<path fill-rule="evenodd" clip-rule="evenodd" d="M25.1714 34C25.4634 34 25.7534 33.873 25.9514 33.627L30.7794 27.627C31.0774 27.256 31.0734 26.726 30.7684 26.36L25.7684 20.36C25.4154 19.936 24.7844 19.879 24.3594 20.232C23.9354 20.585 23.8784 21.216 24.2324 21.64L28.7074 27.011L24.3924 32.373C24.0464 32.803 24.1144 33.433 24.5454 33.779C24.7294 33.928 24.9514 34 25.1714 34Z" fill="white"/>
</mask>
<g mask="url(#mask0_2_909)">
<rect width="24" height="24" transform="matrix(-1 0 0 1 39 15)" fill="white"/>
</g>
</svg>
