<svg width="45" height="45" viewBox="0 0 45 45" fill="none" xmlns="http://www.w3.org/2000/svg">
<rect width="45" height="45" rx="22.5" fill="#F1F1F1"/>
<path fill-rule="evenodd" clip-rule="evenodd" d="M14.4483 16.5H30.5513C31.0733 16.5 31.5003 16.927 31.5003 17.449V17.551C31.5003 18.073 31.0733 18.5 30.5513 18.5H14.4483C13.9263 18.5 13.5003 18.073 13.5003 17.551V17.449C13.5003 16.927 13.9263 16.5 14.4483 16.5ZM30.5513 21.5H14.4483C13.9263 21.5 13.5003 21.927 13.5003 22.449V22.551C13.5003 23.073 13.9263 23.5 14.4483 23.5H30.5513C31.0733 23.5 31.5003 23.073 31.5003 22.551V22.449C31.5003 21.927 31.0733 21.5 30.5513 21.5ZM30.5513 26.5H14.4483C13.9263 26.5 13.5003 26.927 13.5003 27.449V27.551C13.5003 28.073 13.9263 28.5 14.4483 28.5H30.5513C31.0733 28.5 31.5003 28.073 31.5003 27.551V27.449C31.5003 26.927 31.0733 26.5 30.5513 26.5Z" fill="#0D1C2E"/>
<mask id="mask0_2_1164" style="mask-type:luminance" maskUnits="userSpaceOnUse" x="13" y="16" width="19" height="13">
<path fill-rule="evenodd" clip-rule="evenodd" d="M14.4483 16.5H30.5513C31.0733 16.5 31.5003 16.927 31.5003 17.449V17.551C31.5003 18.073 31.0733 18.5 30.5513 18.5H14.4483C13.9263 18.5 13.5003 18.073 13.5003 17.551V17.449C13.5003 16.927 13.9263 16.5 14.4483 16.5ZM30.5513 21.5H14.4483C13.9263 21.5 13.5003 21.927 13.5003 22.449V22.551C13.5003 23.073 13.9263 23.5 14.4483 23.5H30.5513C31.0733 23.5 31.5003 23.073 31.5003 22.551V22.449C31.5003 21.927 31.0733 21.5 30.5513 21.5ZM30.5513 26.5H14.4483C13.9263 26.5 13.5003 26.927 13.5003 27.449V27.551C13.5003 28.073 13.9263 28.5 14.4483 28.5H30.5513C31.0733 28.5 31.5003 28.073 31.5003 27.551V27.449C31.5003 26.927 31.0733 26.5 30.5513 26.5Z" fill="white"/>
</mask>
<g mask="url(#mask0_2_1164)">
<rect x="10.5" y="10.5" width="24" height="24" fill="#0D1C2E"/>
</g>
</svg>
