<svg width="171" height="1208" viewBox="0 0 171 1208" fill="none" xmlns="http://www.w3.org/2000/svg">
<path d="M346.943 10.0755C313.471 -5.89161 272.553 -0.251954 242.612 20.8532C211.599 42.7202 197.264 79.7454 203.796 116.909C210.12 152.776 234.803 186.465 270.574 197.164C304.036 207.17 348.312 196.186 357.716 158.276C365.653 126.261 345.264 88.2082 312.854 79.8181C280.445 71.428 246.063 91.4653 231.05 120.104C212.117 156.243 229.421 197.623 250.764 228.309C276.567 265.544 315.146 297.895 323.878 344.455C330.762 381.163 317.924 420.148 293.129 447.698C280.799 461.578 265.207 472.166 247.763 478.504C228.673 485.252 204.937 485.321 187.364 474.259C167.813 461.957 165.531 437.879 177.766 419.32C191.236 398.927 215.936 391.089 238.343 385.024C281.134 373.454 329.763 366.59 371.633 385.183C408.684 401.688 439.551 439.262 433.124 481.76C425.835 529.94 381.422 559.846 338.579 574.225C315.334 582.021 291.145 586.829 267.168 591.772C242.793 596.801 218.363 601.666 194.22 607.843C148.488 619.596 103.463 636.486 66.4351 666.568C31.6973 694.784 5.47009 733.726 0.990538 779.031C-3.23898 821.213 9.92036 863.451 30.4697 899.886C56.1051 945.446 92.6214 983.778 127.025 1022.69L237.368 1147.51L290.281 1207.36C291.42 1208.65 293.562 1207.03 292.44 1205.74L183.425 1082.41C147.953 1042.3 111.485 1002.87 77.3601 961.595C46.9908 924.845 19.4395 884.213 8.17654 837.228C3.18696 816.421 1.43123 794.719 4.41133 773.448C7.82514 750.336 16.6125 728.342 30.0668 709.234C88.0328 625.686 195.064 610.041 287.035 590.366C330.849 580.979 377.682 569.016 409.179 534.751C422.808 519.951 433.108 501.427 435.939 481.329C438.343 463.078 434.576 444.553 425.237 428.702C405.34 394.166 367.449 375.3 328.727 371.789C307.067 369.856 285.215 372.031 263.969 376.221C242.267 380.512 219.031 385.693 199.54 396.465C182.946 405.642 168.479 421.567 167.242 441.306C166.146 458.942 177.21 473.338 192.912 480.182C227.111 495.09 266.068 478.845 290.865 453.978C315.447 429.309 329.85 394.154 328.297 359.262C326.289 314.852 295.767 280.984 269.276 248.185C244.178 217.13 215.954 175.645 228.476 133.522C238.476 99.8748 275.748 73.8442 310.97 82.1196C346.568 90.4577 368.043 136.819 350.656 169.274C329.831 208.177 273.337 203.617 243.236 179.8C213.135 155.984 198.556 113.467 207.455 76.0746C216.74 37.1629 252.261 10.0679 290.909 4.56716C309.624 1.7593 328.746 4.54704 345.87 12.58C347.453 13.3329 348.448 10.8298 346.943 10.0755Z" fill="#FF4C0D"/>
</svg>
