<svg width="320" height="737" viewBox="0 0 320 737" fill="none" xmlns="http://www.w3.org/2000/svg">
<path d="M958.843 72.0365C937.081 21.6193 879.944 -10.1906 825.729 2.98151C799.354 9.41538 776.041 24.8267 759.792 46.5705C743.858 68.4989 737.02 95.7379 740.711 122.59C744.119 148.465 756.537 173.507 776.663 190.419C795.184 205.998 821.519 213.977 845.416 208.587C870.191 202.94 886.228 181.774 887.349 156.762C888.576 129.328 874.931 102.726 856.016 83.6794C836.072 63.7094 808.51 51.0066 780.025 56.23C751.539 61.4534 732.958 83.6946 728.702 111.75C723.674 144.846 736.728 176.323 742.665 208.33C747.806 236.382 745.258 265.303 735.29 292.025C716.284 343.699 672.019 387.076 617.895 400.082C588.273 407.198 553.715 405.684 528.41 387.107C505.376 370.195 495.638 339.793 501.242 312.192C506.906 284.319 528.273 263.819 555.972 258.02C583.427 252.282 613.23 261.472 629.949 284.592C645.986 306.742 648.849 337.007 640.065 362.564C630.373 390.574 606.143 411.074 578.733 420.854C516.643 442.823 452.948 409.393 413.241 361.928C371.656 312.223 351.59 249.163 314.806 196.369C283.08 150.812 231.515 106.632 172.454 110.311C113.968 113.9 73.08 164.287 55.074 216.051C32.131 281.987 35.811 353.828 16.0332 420.582C-1.71539 480.507 -41.8011 540.433 -106.632 554.619C-136.103 561.353 -167.04 554.42 -190.817 535.754C-212.866 518.434 -228.464 491.348 -225.511 462.672C-222.482 432.997 -200.509 407.652 -173.81 395.767C-142.008 381.626 -103.936 386.259 -73.5426 401.823C-24.6129 426.911 6.44714 481.416 6.44714 536.027C6.32599 600.494 -39.8929 652.365 -90.9883 685.992C-119.353 704.645 -150.049 719.301 -180.685 733.82C-182.669 734.759 -180.943 737.696 -178.959 736.848C-119.11 708.369 -56.0364 677.801 -17.7982 621.131C-1.71539 597.33 8.71869 569.805 9.76361 540.887C10.4872 514.455 4.5174 488.269 -7.59125 464.761C-33.4266 413.966 -88.3079 377.493 -146.657 384.926C-174.643 388.484 -200.509 403.504 -216.076 427.319C-230.772 449.411 -233.094 477.5 -222.225 501.704C-211.276 526.08 -189.378 545.051 -164.557 554.407C-138.207 564.354 -109.01 561.569 -83.371 550.743C-24.31 525.792 8.09784 466.972 23.1508 407.501C31.6617 373.935 35.4778 339.521 39.9453 305.243C44.6399 269.133 50.3793 232.236 65.5686 198.806C77.9412 171.554 96.9618 146.345 122.464 130.221C148.614 113.688 180.624 109.23 210.298 117.987C273.16 136.156 312.534 193.538 341.58 248.194C371.308 304.123 398.279 365.017 452.13 402.292C477.012 419.522 506.648 431.059 537.208 431.241C564.891 431.422 592.953 422.399 614.442 404.73C635.144 387.878 647.541 362.895 648.44 336.22C649.258 311.541 640.217 285.894 620.939 269.799C601.66 253.705 574.341 249.36 550.459 255.825C525.941 262.472 506.542 280.625 499.455 305.137C492.579 328.892 496.956 356.145 512.1 375.873C529.833 398.992 560.015 407.834 588.152 407.319C642.458 406.305 691.842 373.359 720.752 328.589C735.336 306.226 744.589 280.814 747.799 254.311C749.329 240.893 749.085 227.331 747.072 213.977C744.3 195.582 738.652 177.792 734.79 159.623C728.233 128.722 727.718 88.9786 757.036 69.0539C785.355 49.7954 822.155 58.7736 846.688 79.6521C869.404 99.062 886.652 129.237 883.714 159.972C882.321 174.476 875.431 188.269 863.437 196.868C852.306 204.847 838.313 207.467 824.82 206.543C762.655 202.001 729.777 129.6 748.571 74.9132C758.505 46.086 782.266 23.0424 810.282 11.5055C838.417 -0.0536587 870.124 0.792992 897.601 13.8371C923.655 26.0797 944.37 47.3713 955.89 73.7474C956.768 75.7611 959.706 74.0199 958.843 72.0365Z" fill="#FF4C0D"/>
</svg>
