<svg width="225" height="383" viewBox="0 0 225 383" fill="none" xmlns="http://www.w3.org/2000/svg">
<path d="M29.8471 -74.3087C10.6552 -62.8013 -0.154442 -40.3435 0.474188 -18.2488C1.12815 4.63956 14.9669 24.1956 35.8343 33.3043C55.9799 42.0852 81.1528 40.9076 98.4623 26.487C114.653 12.9966 123.895 -12.932 107.966 -30.3038C94.5136 -44.9716 68.5785 -47.4084 53.5512 -33.9082C38.5238 -20.4079 37.1343 3.56408 46.5292 20.6644C58.3895 42.237 84.9691 47.3352 107.518 46.8349C134.847 46.277 163.982 37.6649 190.308 48.8007C211.063 57.5807 226.387 77.0373 231.972 98.6938C234.84 109.523 234.965 120.895 232.335 131.781C229.362 143.631 221.481 155.591 210.058 160.739C197.352 166.468 184.483 159.585 179.23 147.244C173.467 133.669 177.762 118.634 182.184 105.344C190.636 79.9664 203.402 53.2231 226.715 38.3678C247.371 25.2401 276.56 22.2477 295.788 39.6522C317.585 59.3853 317.814 91.6929 310.757 118.033C306.926 132.322 301.277 146.09 295.767 159.795C290.167 173.73 284.466 187.638 279.521 201.839C270.181 228.756 263.659 257.031 266.439 285.683C269.043 312.562 279.88 338.738 301.169 356.099C320.971 372.293 346.6 379.761 371.775 381.578C403.235 383.88 434.689 378.3 465.731 373.975L565.298 360.112L613.04 353.461C614.068 353.319 613.969 351.702 612.946 351.836L514.573 365.53C482.57 369.99 450.579 375.179 418.444 378.576C389.836 381.593 360.215 381.898 332.832 371.893C320.704 367.463 309.205 361.109 299.502 352.517C289.018 343.092 280.888 331.339 275.766 318.201C253.082 261.189 280.908 202.147 301.685 149.336C311.575 124.172 321.178 96.6316 314.45 69.3657C311.552 57.5762 305.673 46.2189 296.51 38.0929C288.133 30.7973 277.561 26.514 266.476 25.9247C242.473 24.4131 220.35 37.1759 205.671 55.4777C197.475 65.7254 191.282 77.44 186.304 89.521C181.224 101.866 176.081 115.279 174.998 128.672C174.079 140.077 177.263 152.664 186.776 159.868C195.28 166.301 206.209 165.538 214.887 159.924C233.788 147.697 238.611 122.689 234.375 101.927C230.168 81.3379 217.292 62.3714 199.228 51.5162C176.225 37.7161 149.015 41.7707 123.687 44.1546C99.6996 46.4192 69.4253 46.7779 52.419 26.4336C38.8332 10.1837 38.1726 -17.2404 54.0802 -32.1932C70.1446 -47.3139 100.62 -42.6528 111.143 -23.0859C123.762 0.360557 102.628 27.2493 80.6135 34.4441C58.5985 41.6389 32.3558 34.7914 16.5193 17.8468C0.0479428 0.201006 -1.73165 -26.6979 8.39041 -47.9672C13.2197 -58.3152 20.9985 -67.0015 30.7489 -72.9343C31.6552 -73.4789 30.7285 -74.8144 29.8471 -74.3087Z" fill="#FF4C0D"/>
</svg>
