<svg width="270" height="600" viewBox="0 0 270 600" fill="none" xmlns="http://www.w3.org/2000/svg">
<path d="M0.156974 -64.9635C21.9187 -115.381 79.0564 -147.191 133.271 -134.018C159.646 -127.585 182.959 -112.173 199.208 -90.4295C215.142 -68.5011 221.98 -41.2621 218.289 -14.4099C214.881 11.4649 202.463 36.507 182.337 53.4187C163.816 68.9981 137.481 76.9771 113.584 71.5871C88.809 65.9398 72.7717 44.7736 71.651 19.7618C70.4244 -7.67249 84.069 -34.274 102.984 -53.3206C122.928 -73.2906 150.49 -85.9934 178.975 -80.77C207.461 -75.5466 226.042 -53.3054 230.298 -25.2504C235.326 7.84636 222.272 39.3231 216.335 71.3297C211.194 99.3825 213.742 128.303 223.71 155.025C242.716 206.699 286.981 250.076 341.105 263.082C370.727 270.198 405.285 268.684 430.59 250.107C453.624 233.195 463.362 202.793 457.758 175.192C452.094 147.319 430.727 126.819 403.028 121.02C375.573 115.282 345.77 124.472 329.051 147.592C313.014 169.742 310.151 200.007 318.935 225.564C328.627 253.574 352.857 274.074 380.267 283.854C442.357 305.823 506.052 272.393 545.759 224.928C587.344 175.223 607.41 112.163 644.194 59.3689C675.92 13.8116 727.485 -30.3678 786.546 -26.6887C845.032 -23.1005 885.92 27.2865 903.926 79.0513C926.869 144.987 923.189 216.828 942.967 283.582C960.715 343.507 1000.8 403.433 1065.63 417.619C1095.1 424.353 1126.04 417.42 1149.82 398.754C1171.87 381.434 1187.46 354.348 1184.51 325.672C1181.48 295.997 1159.51 270.652 1132.81 258.767C1101.01 244.626 1062.94 249.259 1032.54 264.823C983.613 289.911 952.553 344.416 952.553 399.027C952.674 463.494 998.893 515.365 1049.99 548.992C1078.35 567.645 1109.05 582.301 1139.69 596.82C1141.67 597.759 1139.94 600.696 1137.96 599.848C1078.11 571.369 1015.04 540.801 976.798 484.131C960.715 460.33 950.281 432.805 949.236 403.887C948.513 377.455 954.483 351.269 966.591 327.761C992.427 276.966 1047.31 240.493 1105.66 247.926C1133.64 251.484 1159.51 266.504 1175.08 290.319C1189.77 312.411 1192.09 340.5 1181.22 364.704C1170.28 389.08 1148.38 408.051 1123.56 417.407C1097.21 427.354 1068.01 424.569 1042.37 413.743C983.31 388.792 950.902 329.972 935.849 270.501C927.338 236.935 923.522 202.521 919.055 168.243C914.36 132.133 908.621 95.2363 893.431 61.8065C881.059 34.5539 862.038 9.34525 836.536 -6.77921C810.386 -23.312 778.376 -27.7703 748.702 -19.0126C685.84 -0.844208 646.466 56.5376 617.42 111.194C587.692 167.123 560.721 228.017 506.87 265.292C481.988 282.522 452.352 294.059 421.792 294.241C394.109 294.422 366.047 285.399 344.558 267.73C323.856 250.878 311.459 225.895 310.56 199.22C309.742 174.541 318.783 148.894 338.061 132.799C357.34 116.705 384.659 112.36 408.541 118.825C433.059 125.472 452.458 143.625 459.545 168.137C466.421 191.892 462.044 219.145 446.9 238.873C429.167 261.992 398.985 270.834 370.848 270.319C316.542 269.305 267.158 236.359 238.248 191.589C223.664 169.226 214.411 143.814 211.201 117.311C209.671 103.893 209.915 90.3314 211.928 76.9771C214.7 58.5816 220.348 40.7917 224.21 22.6233C230.767 -8.27811 231.282 -48.0214 201.964 -67.9461C173.645 -87.2046 136.845 -78.2264 112.312 -57.3479C89.5965 -37.938 72.3476 -7.76332 75.2856 22.9715C76.6788 37.476 83.5692 51.2688 95.5631 59.8685C106.694 67.8474 120.687 70.4667 134.18 69.5432C196.345 65.0011 229.223 -7.39996 210.429 -62.0868C200.495 -90.914 176.734 -113.958 148.718 -125.494C120.583 -137.054 88.8761 -136.207 61.3987 -123.163C35.3453 -110.92 14.63 -89.6287 3.11002 -63.2526C2.23168 -61.2389 -0.706224 -62.9801 0.156974 -64.9635Z" fill="#FF4C0D"/>
</svg>
