<svg width="64" height="541" viewBox="0 0 64 541" fill="none" xmlns="http://www.w3.org/2000/svg">
<path d="M872.885 52.8789C856.893 15.8698 814.906 -7.48046 775.066 2.1886C755.684 6.91143 738.553 18.2242 726.613 34.1854C714.903 50.2821 709.879 70.277 712.591 89.9881C715.095 108.982 724.22 127.364 739.01 139.778C752.62 151.214 771.972 157.071 789.533 153.115C807.739 148.969 819.524 133.432 820.347 115.072C821.249 94.9338 811.222 75.4067 797.323 61.4255C782.667 46.7663 762.413 37.4418 741.48 41.2761C720.548 45.1103 706.893 61.4366 703.766 82.0306C700.071 106.325 709.664 129.431 714.026 152.926C717.804 173.518 715.932 194.748 708.607 214.363C694.641 252.295 662.112 284.136 622.339 293.683C600.572 298.906 575.177 297.795 556.581 284.158C539.655 271.744 532.499 249.428 536.617 229.167C540.779 208.706 556.481 193.658 576.835 189.402C597.011 185.189 618.912 191.936 631.197 208.906C642.982 225.166 645.086 247.383 638.631 266.143C631.509 286.703 613.704 301.752 593.561 308.931C547.935 325.057 501.128 300.518 471.95 265.676C441.391 229.189 426.646 182.9 399.615 144.146C376.301 110.704 338.409 78.2741 295.008 80.9748C252.03 83.6087 221.983 120.596 208.751 158.594C191.892 206.995 194.596 259.73 180.062 308.731C167.02 352.72 137.563 396.708 89.922 407.122C68.2652 412.065 45.5315 406.976 28.0591 393.274C11.8561 380.56 0.393836 360.677 2.56388 339.628C4.78956 317.844 20.9369 299.24 40.5563 290.515C63.926 280.135 91.9029 283.536 114.238 294.961C150.194 313.377 173.018 353.387 173.018 393.474C172.929 440.797 138.965 478.873 101.418 503.557C80.5742 517.249 58.0168 528.008 35.504 538.666C34.0462 539.355 35.3148 541.511 36.7726 540.889C80.7522 519.983 127.102 497.544 155.201 455.945C167.02 438.474 174.687 418.269 175.455 397.042C175.987 377.639 171.6 358.417 162.702 341.161C143.717 303.874 103.387 277.101 60.5096 282.558C39.9443 285.17 20.9369 296.195 9.49687 313.677C-1.30225 329.894 -3.00833 350.512 4.97873 368.279C13.0246 386.172 29.1163 400.098 47.3558 406.967C66.7193 414.268 88.1748 412.223 107.015 404.277C150.416 385.961 174.231 342.784 185.293 299.129C191.547 274.489 194.351 249.227 197.634 224.066C201.084 197.559 205.301 170.475 216.463 145.935C225.555 125.93 239.533 107.426 258.273 95.5895C277.489 83.4535 301.012 80.1808 322.818 86.6095C369.012 99.9461 397.946 142.068 419.29 182.189C441.135 223.243 460.955 267.943 500.528 295.306C518.812 307.953 540.59 316.422 563.047 316.555C583.39 316.689 604.011 310.065 619.802 297.095C635.015 284.724 644.125 266.386 644.785 246.805C645.386 228.689 638.743 209.862 624.576 198.048C610.41 186.234 590.334 183.044 572.784 187.79C554.767 192.669 540.512 205.995 535.304 223.988C530.252 241.426 533.468 261.431 544.596 275.912C557.627 292.883 579.806 299.373 600.483 298.995C640.39 298.251 676.679 274.067 697.924 241.203C708.641 224.788 715.441 206.133 717.799 186.679C718.924 176.829 718.744 166.874 717.265 157.071C715.228 143.568 711.077 130.509 708.24 117.173C703.421 94.4892 703.043 65.3153 724.587 50.6895C745.397 36.5527 772.439 43.1432 790.468 58.4692C807.16 72.7172 819.835 94.8671 817.677 117.428C816.653 128.075 811.589 138.2 802.776 144.513C794.596 150.37 784.314 152.292 774.398 151.614C728.716 148.28 704.556 95.1338 718.366 54.9906C725.667 33.8298 743.127 16.9145 763.715 8.44571C784.39 -0.0393885 807.69 0.582102 827.881 10.1572C847.027 19.144 862.249 34.7732 870.715 54.1348C871.36 55.6129 873.519 54.3348 872.885 52.8789Z" fill="#FF4C0D"/>
</svg>
